<?xml version="1.0" encoding="UTF-8"?><svg id="OBJECTS" xmlns="http://www.w3.org/2000/svg" viewBox="0 0 374.52 106.56"><defs><style>.cls-1{fill:#fff;}.cls-2{fill:#004f53;}</style></defs><path class="cls-2" d="m24,48.02v-15.81l-.03-2.82h9.33l3.3,9.69h.06l3.24-9.69h9.39l-.03,2.82v15.81l.03,2.82h-7.23l.03-2.82v-7.68l.06-2.04h-.06l-3.93,12.54h-4.38l-3.93-12.54h-.06l.06,2.04v7.68l.03,2.82h-5.91l.03-2.82Z"/><path class="cls-2" d="m57.06,50.84h-6.6l7.59-21.45h7.71l7.29,21.45h-7.89l-.9-3.39h-6.15l-1.05,3.39Zm2.49-8.07h3.48l-1.56-6.06h-.06l-1.86,6.06Z"/><path class="cls-2" d="m83.85,34.61v13.41l.03,2.82h-7.41l.03-2.82v-13.41h-5.4v-5.22h18.15v5.22h-5.4Z"/><path class="cls-2" d="m105.75,42.59h-7.17v3.03h8.76v5.22h-16.08l.03-2.82v-15.81l-.03-2.82h15.84v5.22h-8.52v2.88h7.17v5.1Z"/><path class="cls-2" d="m109.8,48.02v-15.81l-.03-2.82h9.33l3.3,9.69h.06l3.24-9.69h9.39l-.03,2.82v15.81l.03,2.82h-7.23l.03-2.82v-7.68l.06-2.04h-.06l-3.93,12.54h-4.38l-3.93-12.54h-.06l.06,2.04v7.68l.03,2.82h-5.91l.03-2.82Z"/><path class="cls-2" d="m142.86,50.84h-6.6l7.59-21.45h7.71l7.29,21.45h-7.89l-.9-3.39h-6.15l-1.05,3.39Zm.48-22.86l3.12-4.26h6.45l-4.8,4.26h-4.77Zm2.01,14.79h3.48l-1.56-6.06h-.06l-1.86,6.06Z"/><path class="cls-2" d="m169.65,34.61v13.41l.03,2.82h-7.41l.03-2.82v-13.41h-5.4v-5.22h18.15v5.22h-5.4Z"/><path class="cls-2" d="m177.06,50.84l.03-2.82v-15.81l-.03-2.82h7.35l-.03,2.82v15.81l.03,2.82h-7.35Z"/><path class="cls-2" d="m207.72,43.73c-.51,2.7-3,7.68-10.11,7.68-6.15,0-10.83-3.78-10.83-11.13,0-6.9,4.2-11.46,10.98-11.46s9.15,4.35,9.78,7.95l-6.99.66c-.42-1.95-1.17-3.63-2.91-3.63s-2.79,1.74-2.79,6.27c0,5.07,1.26,6.36,2.94,6.36,1.59,0,2.64-1.26,3.06-4.02l6.87,1.32Z"/><path class="cls-2" d="m213.84,50.84h-6.6l7.59-21.45h7.71l7.29,21.45h-7.89l-.9-3.39h-6.15l-1.05,3.39Zm2.49-8.07h3.48l-1.56-6.06h-.06l-1.86,6.06Z"/><path class="cls-2" d="m38.46,78.59h-7.17v3.03h8.76v5.22h-16.08l.03-2.82v-15.81l-.03-2.82h15.84v5.22h-8.52v2.88h7.17v5.1Z"/><path class="cls-2" d="m63.51,71.75c-1.65-1.23-3.36-2.13-5.73-2.13-1.56,0-2.67.48-2.67,1.47,0,1.53,2.52,1.44,5.13,1.95,4.08.78,7.14,2.79,7.14,6.78,0,4.23-3.42,7.59-9.87,7.59-3.93,0-7.86-1.29-10.32-3.51l3.3-3.9c1.86,1.47,4.02,2.64,6.81,2.64,1.56,0,2.79-.45,2.79-1.53,0-1.62-2.82-1.59-5.49-2.13-3.87-.78-6.78-2.58-6.78-6.57,0-4.2,3.27-7.59,9.42-7.59,3.42,0,7.26,1.17,9.54,3l-3.27,3.93Z"/><path class="cls-2" d="m76.65,68.21v10.89c0,1.8.87,2.76,2.58,2.76,1.59,0,2.4-.87,2.4-2.76v-10.89l-.03-2.82h6.72l-.03,2.82v10.95c0,2.19-.57,4.44-2.28,6.06-1.62,1.53-4.08,2.19-7.05,2.19-3.27,0-5.94-.81-7.5-2.25-1.86-1.74-2.1-4.17-2.1-6.87v-10.08l-.03-2.82h7.35l-.03,2.82Z"/><path class="cls-2" d="m95.46,86.84h-6.6l7.59-21.45h7.71l7.29,21.45h-7.89l-.9-3.39h-6.15l-1.05,3.39Zm2.49-8.07h3.48l-1.56-6.06h-.06l-1.86,6.06Z"/><path class="cls-2" d="m127.65,71.75c-1.65-1.23-3.36-2.13-5.73-2.13-1.56,0-2.67.48-2.67,1.47,0,1.53,2.52,1.44,5.13,1.95,4.08.78,7.14,2.79,7.14,6.78,0,4.23-3.42,7.59-9.87,7.59-3.93,0-7.86-1.29-10.32-3.51l3.3-3.9c1.86,1.47,4.02,2.64,6.81,2.64,1.56,0,2.79-.45,2.79-1.53,0-1.62-2.82-1.59-5.49-2.13-3.87-.78-6.78-2.58-6.78-6.57,0-4.2,3.27-7.59,9.42-7.59,3.42,0,7.26,1.17,9.54,3l-3.27,3.93Z"/><path class="cls-2" d="m150.48,70.61v13.41l.03,2.82h-7.41l.03-2.82v-13.41h-5.4v-5.22h18.15v5.22h-5.4Z"/><path class="cls-2" d="m172.38,78.59h-7.17v3.03h8.76v5.22h-16.08l.03-2.82v-15.81l-.03-2.82h15.84v5.22h-8.52v2.88h7.17v5.1Z"/><path class="cls-2" d="m196.17,79.73c-.51,2.7-3,7.68-10.11,7.68-6.15,0-10.83-3.78-10.83-11.13,0-6.9,4.2-11.46,10.98-11.46s9.15,4.35,9.78,7.95l-6.99.66c-.42-1.95-1.17-3.63-2.91-3.63s-2.79,1.74-2.79,6.27c0,5.07,1.26,6.36,2.94,6.36,1.59,0,2.64-1.26,3.06-4.02l6.87,1.32Z"/><path class="cls-2" d="m211.05,65.39h6.39l-.03,2.82v15.81l.03,2.82h-5.04l-7.89-10.47h-.06l.06,1.92v5.73l.03,2.82h-6.42l.03-2.82v-15.81l-.03-2.82h6.24l6.72,8.88h.06l-.06-1.89v-4.17l-.03-2.82Z"/><path class="cls-2" d="m219.78,76.1c0-6.18,3.96-11.28,11.04-11.28s11.01,5.1,11.01,11.28-3.99,11.31-11.01,11.31-11.04-5.1-11.04-11.31Zm13.83,0c0-4.71-.9-6.3-2.79-6.3s-2.79,1.59-2.79,6.3.84,6.33,2.79,6.33,2.79-1.59,2.79-6.33Z"/><path class="cls-2" d="m244.17,86.84l.03-2.82v-15.81l-.03-2.82h7.35l-.03,2.82v13.41h7.71v5.22h-15.03Z"/><path class="cls-2" d="m259.71,76.1c0-6.18,3.96-11.28,11.04-11.28s11.01,5.1,11.01,11.28-3.99,11.31-11.01,11.31-11.04-5.1-11.04-11.31Zm13.83,0c0-4.71-.9-6.3-2.79-6.3s-2.79,1.59-2.79,6.3.84,6.33,2.79,6.33,2.79-1.59,2.79-6.33Z"/><path class="cls-2" d="m300.69,86.84l-.54-2.28h-.06c-1.11,1.47-2.73,2.85-6.42,2.85-5.55,0-10.38-3.72-10.38-11.31s5.31-11.28,11.22-11.28c4.77,0,8.76,2.13,9.93,7.08l-7.02,1.05c-.3-1.83-1.32-3.15-2.97-3.15s-3.12,1.5-3.12,6.33,1.44,6.3,3.27,6.3,2.85-1.29,2.97-3.3h-3.18v-4.41h10.32l-.03,2.82v9.3h-3.99Z"/><path class="cls-2" d="m307.47,86.84l.03-2.82v-15.81l-.03-2.82h7.35l-.03,2.82v15.81l.03,2.82h-7.35Z"/><path class="cls-2" d="m322.59,86.84h-6.6l7.59-21.45h7.71l7.29,21.45h-7.89l-.9-3.39h-6.15l-1.05,3.39Zm2.49-8.07h3.48l-1.56-6.06h-.06l-1.86,6.06Z"/><path class="cls-2" d="m354.78,71.75c-1.65-1.23-3.36-2.13-5.73-2.13-1.56,0-2.67.48-2.67,1.47,0,1.53,2.52,1.44,5.13,1.95,4.08.78,7.14,2.79,7.14,6.78,0,4.23-3.42,7.59-9.87,7.59-3.93,0-7.86-1.29-10.32-3.51l3.3-3.9c1.86,1.47,4.02,2.64,6.81,2.64,1.56,0,2.79-.45,2.79-1.53,0-1.62-2.82-1.59-5.49-2.13-3.87-.78-6.78-2.58-6.78-6.57,0-4.2,3.27-7.59,9.42-7.59,3.42,0,7.26,1.17,9.54,3l-3.27,3.93Z"/><path class="cls-1" d="m20,44.02v-15.81l-.03-2.82h9.33l3.3,9.69h.06l3.24-9.69h9.39l-.03,2.82v15.81l.03,2.82h-7.23l.03-2.82v-7.68l.06-2.04h-.06l-3.93,12.54h-4.38l-3.93-12.54h-.06l.06,2.04v7.68l.03,2.82h-5.91l.03-2.82Z"/><path class="cls-1" d="m53.06,46.84h-6.6l7.59-21.45h7.71l7.29,21.45h-7.89l-.9-3.39h-6.15l-1.05,3.39Zm2.49-8.07h3.48l-1.56-6.06h-.06l-1.86,6.06Z"/><path class="cls-1" d="m79.85,30.61v13.41l.03,2.82h-7.41l.03-2.82v-13.41h-5.4v-5.22h18.15v5.22h-5.4Z"/><path class="cls-1" d="m101.75,38.59h-7.17v3.03h8.76v5.22h-16.08l.03-2.82v-15.81l-.03-2.82h15.84v5.22h-8.52v2.88h7.17v5.1Z"/><path class="cls-1" d="m105.8,44.02v-15.81l-.03-2.82h9.33l3.3,9.69h.06l3.24-9.69h9.39l-.03,2.82v15.81l.03,2.82h-7.23l.03-2.82v-7.68l.06-2.04h-.06l-3.93,12.54h-4.38l-3.93-12.54h-.06l.06,2.04v7.68l.03,2.82h-5.91l.03-2.82Z"/><path class="cls-1" d="m138.86,46.84h-6.6l7.59-21.45h7.71l7.29,21.45h-7.89l-.9-3.39h-6.15l-1.05,3.39Zm.48-22.86l3.12-4.26h6.45l-4.8,4.26h-4.77Zm2.01,14.79h3.48l-1.56-6.06h-.06l-1.86,6.06Z"/><path class="cls-1" d="m165.65,30.61v13.41l.03,2.82h-7.41l.03-2.82v-13.41h-5.4v-5.22h18.15v5.22h-5.4Z"/><path class="cls-1" d="m173.06,46.84l.03-2.82v-15.81l-.03-2.82h7.35l-.03,2.82v15.81l.03,2.82h-7.35Z"/><path class="cls-1" d="m203.72,39.73c-.51,2.7-3,7.68-10.11,7.68-6.15,0-10.83-3.78-10.83-11.13,0-6.9,4.2-11.46,10.98-11.46s9.15,4.35,9.78,7.95l-6.99.66c-.42-1.95-1.17-3.63-2.91-3.63s-2.79,1.74-2.79,6.27c0,5.07,1.26,6.36,2.94,6.36,1.59,0,2.64-1.26,3.06-4.02l6.87,1.32Z"/><path class="cls-1" d="m209.84,46.84h-6.6l7.59-21.45h7.71l7.29,21.45h-7.89l-.9-3.39h-6.15l-1.05,3.39Zm2.49-8.07h3.48l-1.56-6.06h-.06l-1.86,6.06Z"/><path class="cls-1" d="m34.46,74.59h-7.17v3.03h8.76v5.22h-16.08l.03-2.82v-15.81l-.03-2.82h15.84v5.22h-8.52v2.88h7.17v5.1Z"/><path class="cls-1" d="m59.51,67.75c-1.65-1.23-3.36-2.13-5.73-2.13-1.56,0-2.67.48-2.67,1.47,0,1.53,2.52,1.44,5.13,1.95,4.08.78,7.14,2.79,7.14,6.78,0,4.23-3.42,7.59-9.87,7.59-3.93,0-7.86-1.29-10.32-3.51l3.3-3.9c1.86,1.47,4.02,2.64,6.81,2.64,1.56,0,2.79-.45,2.79-1.53,0-1.62-2.82-1.59-5.49-2.13-3.87-.78-6.78-2.58-6.78-6.57,0-4.2,3.27-7.59,9.42-7.59,3.42,0,7.26,1.17,9.54,3l-3.27,3.93Z"/><path class="cls-1" d="m72.65,64.21v10.89c0,1.8.87,2.76,2.58,2.76,1.59,0,2.4-.87,2.4-2.76v-10.89l-.03-2.82h6.72l-.03,2.82v10.95c0,2.19-.57,4.44-2.28,6.06-1.62,1.53-4.08,2.19-7.05,2.19-3.27,0-5.94-.81-7.5-2.25-1.86-1.74-2.1-4.17-2.1-6.87v-10.08l-.03-2.82h7.35l-.03,2.82Z"/><path class="cls-1" d="m91.46,82.84h-6.6l7.59-21.45h7.71l7.29,21.45h-7.89l-.9-3.39h-6.15l-1.05,3.39Zm2.49-8.07h3.48l-1.56-6.06h-.06l-1.86,6.06Z"/><path class="cls-1" d="m123.65,67.75c-1.65-1.23-3.36-2.13-5.73-2.13-1.56,0-2.67.48-2.67,1.47,0,1.53,2.52,1.44,5.13,1.95,4.08.78,7.14,2.79,7.14,6.78,0,4.23-3.42,7.59-9.87,7.59-3.93,0-7.86-1.29-10.32-3.51l3.3-3.9c1.86,1.47,4.02,2.64,6.81,2.64,1.56,0,2.79-.45,2.79-1.53,0-1.62-2.82-1.59-5.49-2.13-3.87-.78-6.78-2.58-6.78-6.57,0-4.2,3.27-7.59,9.42-7.59,3.42,0,7.26,1.17,9.54,3l-3.27,3.93Z"/><path class="cls-1" d="m146.48,66.61v13.41l.03,2.82h-7.41l.03-2.82v-13.41h-5.4v-5.22h18.15v5.22h-5.4Z"/><path class="cls-1" d="m168.38,74.59h-7.17v3.03h8.76v5.22h-16.08l.03-2.82v-15.81l-.03-2.82h15.84v5.22h-8.52v2.88h7.17v5.1Z"/><path class="cls-1" d="m192.17,75.73c-.51,2.7-3,7.68-10.11,7.68-6.15,0-10.83-3.78-10.83-11.13,0-6.9,4.2-11.46,10.98-11.46s9.15,4.35,9.78,7.95l-6.99.66c-.42-1.95-1.17-3.63-2.91-3.63s-2.79,1.74-2.79,6.27c0,5.07,1.26,6.36,2.94,6.36,1.59,0,2.64-1.26,3.06-4.02l6.87,1.32Z"/><path class="cls-1" d="m207.05,61.39h6.39l-.03,2.82v15.81l.03,2.82h-5.04l-7.89-10.47h-.06l.06,1.92v5.73l.03,2.82h-6.42l.03-2.82v-15.81l-.03-2.82h6.24l6.72,8.88h.06l-.06-1.89v-4.17l-.03-2.82Z"/><path class="cls-1" d="m215.78,72.1c0-6.18,3.96-11.28,11.04-11.28s11.01,5.1,11.01,11.28-3.99,11.31-11.01,11.31-11.04-5.1-11.04-11.31Zm13.83,0c0-4.71-.9-6.3-2.79-6.3s-2.79,1.59-2.79,6.3.84,6.33,2.79,6.33,2.79-1.59,2.79-6.33Z"/><path class="cls-1" d="m240.17,82.84l.03-2.82v-15.81l-.03-2.82h7.35l-.03,2.82v13.41h7.71v5.22h-15.03Z"/><path class="cls-1" d="m255.71,72.1c0-6.18,3.96-11.28,11.04-11.28s11.01,5.1,11.01,11.28-3.99,11.31-11.01,11.31-11.04-5.1-11.04-11.31Zm13.83,0c0-4.71-.9-6.3-2.79-6.3s-2.79,1.59-2.79,6.3.84,6.33,2.79,6.33,2.79-1.59,2.79-6.33Z"/><path class="cls-1" d="m296.69,82.84l-.54-2.28h-.06c-1.11,1.47-2.73,2.85-6.42,2.85-5.55,0-10.38-3.72-10.38-11.31s5.31-11.28,11.22-11.28c4.77,0,8.76,2.13,9.93,7.08l-7.02,1.05c-.3-1.83-1.32-3.15-2.97-3.15s-3.12,1.5-3.12,6.33,1.44,6.3,3.27,6.3,2.85-1.29,2.97-3.3h-3.18v-4.41h10.32l-.03,2.82v9.3h-3.99Z"/><path class="cls-1" d="m303.47,82.84l.03-2.82v-15.81l-.03-2.82h7.35l-.03,2.82v15.81l.03,2.82h-7.35Z"/><path class="cls-1" d="m318.59,82.84h-6.6l7.59-21.45h7.71l7.29,21.45h-7.89l-.9-3.39h-6.15l-1.05,3.39Zm2.49-8.07h3.48l-1.56-6.06h-.06l-1.86,6.06Z"/><path class="cls-1" d="m350.78,67.75c-1.65-1.23-3.36-2.13-5.73-2.13-1.56,0-2.67.48-2.67,1.47,0,1.53,2.52,1.44,5.13,1.95,4.08.78,7.14,2.79,7.14,6.78,0,4.23-3.42,7.59-9.87,7.59-3.93,0-7.86-1.29-10.32-3.51l3.3-3.9c1.86,1.47,4.02,2.64,6.81,2.64,1.56,0,2.79-.45,2.79-1.53,0-1.62-2.82-1.59-5.49-2.13-3.87-.78-6.78-2.58-6.78-6.57,0-4.2,3.27-7.59,9.42-7.59,3.42,0,7.26,1.17,9.54,3l-3.27,3.93Z"/></svg>